<?xml version="1.0" encoding="iso-8859-1"?>
<!-- Generator: Adobe Illustrator 18.0.0, SVG Export Plug-In . SVG Version: 6.00 Build 0)  -->
<!DOCTYPE svg PUBLIC "-//W3C//DTD SVG 1.1//EN" "http://www.w3.org/Graphics/SVG/1.1/DTD/svg11.dtd">
<svg version="1.1" id="Capa_1" xmlns="http://www.w3.org/2000/svg" xmlns:xlink="http://www.w3.org/1999/xlink" x="0px" y="0px"
	 viewBox="0 0 492.128 492.128" style="enable-background:new 0 0 492.128 492.128;" xml:space="preserve">
<path id="XMLID_79_" d="M490.061,241.075L334.164,85.179c-2.017-2.018-5.046-2.614-7.686-1.528
	c-2.631,1.097-4.348,3.661-4.348,6.515v75.376H17.42c-9.619,0-17.42,7.802-17.42,17.421v126.202c0,9.619,7.802,17.421,17.42,17.421
	h304.709v75.377c0,2.854,1.717,5.419,4.348,6.515c2.64,1.087,5.669,0.489,7.686-1.527l155.897-155.898
	C492.817,248.296,492.817,243.833,490.061,241.075z M79.675,286.432c-22.293,0-40.369-18.076-40.369-40.368
	s18.076-40.369,40.369-40.369c22.292,0,40.369,18.077,40.369,40.369S101.968,286.432,79.675,286.432z"/>
<g>
</g>
<g>
</g>
<g>
</g>
<g>
</g>
<g>
</g>
<g>
</g>
<g>
</g>
<g>
</g>
<g>
</g>
<g>
</g>
<g>
</g>
<g>
</g>
<g>
</g>
<g>
</g>
<g>
</g>
</svg>
