<svg xmlns="http://www.w3.org/2000/svg"
     width="671" height="114" viewBox="0 0 671.000000 114.000000"
     preserveAspectRatio="xMidYMid meet" aria-hidden="true" fill="currentColor" id="techlens-project">

    <g transform="translate(0.000000,114.000000) scale(0.100000,-0.100000)"
       fill="currentColor" stroke="none">
        <path d="M815 1097 c-11 -18 -42 -43 -70 -57 -49 -25 -54 -25 -360 -30 -218
-4 -316 -9 -331 -17 -17 -10 -54 -77 -54 -97 0 -2 17 0 38 5 51 13 292 24 292
14 0 -5 -34 -180 -75 -390 -41 -210 -75 -394 -75 -409 0 -23 4 -26 31 -26 18
0 49 5 70 12 37 11 39 13 39 52 0 33 71 423 130 712 l11 51 123 5 c104 4 131
9 179 31 81 37 121 112 85 159 -12 15 -15 13 -33 -15z"/>
        <path d="M3360 1103 c-53 -9 -80 -27 -110 -74 -37 -56 -88 -196 -120 -326
l-23 -93 -159 0 c-124 0 -158 3 -158 13 0 7 17 99 39 205 21 105 37 193 35
195 -2 2 -29 0 -61 -4 -101 -13 -221 -10 -258 5 -39 16 -42 11 -21 -37 24 -58
49 -72 127 -69 63 2 70 0 65 -16 -3 -9 -17 -79 -32 -154 l-27 -138 -48 0 c-67
0 -124 -25 -149 -65 -30 -49 -25 -55 29 -35 56 22 151 37 151 24 0 -5 -22
-119 -49 -254 -27 -135 -46 -251 -44 -258 12 -30 140 1 136 34 -2 16 66 387
84 462 5 22 8 22 165 22 l161 0 -7 -40 c-32 -202 -6 -343 74 -397 72 -50 210
-20 234 50 13 35 5 41 -30 22 -44 -22 -91 -19 -119 9 -36 36 -48 97 -41 211 8
136 11 145 51 145 18 0 44 9 57 20 25 19 55 76 46 85 -3 3 -25 -4 -49 -15 -80
-36 -83 -28 -44 118 33 123 77 228 126 297 21 31 39 58 39 60 0 5 -32 4 -70
-2z"/>
        <path d="M5221 1088 l-53 -20 27 -26 c15 -14 39 -50 53 -80 l25 -56 -67 -290
c-103 -451 -109 -491 -79 -521 13 -14 29 -16 76 -12 32 3 61 7 63 10 3 3 -4
20 -15 38 -15 24 -21 51 -21 93 0 57 86 513 100 529 4 4 38 -63 75 -150 165
-382 257 -523 342 -523 81 0 146 159 208 510 35 197 43 355 21 398 -14 28 -22
32 -57 32 -35 0 -99 -23 -99 -35 0 -2 11 -21 25 -41 34 -50 39 -86 32 -258 -9
-208 -46 -381 -93 -434 l-24 -27 -36 40 c-45 51 -135 234 -269 550 -101 238
-134 296 -168 294 -7 0 -36 -9 -66 -21z"/>
        <path d="M3777 1078 c-24 -8 -28 -14 -23 -34 4 -13 -27 -191 -69 -403 -41
-209 -75 -402 -75 -429 0 -62 30 -103 88 -120 86 -26 341 -6 440 33 27 11 46
29 61 56 13 22 21 42 19 45 -3 2 -30 -5 -60 -15 -129 -44 -307 -53 -376 -17
-30 15 -32 20 -32 67 0 27 30 201 66 387 37 185 67 360 68 387 l1 50 -40 2
c-22 1 -53 -3 -68 -9z"/>
        <path d="M1568 1045 c-16 -17 -149 -28 -398 -34 -319 -8 -323 -8 -361 -82 -28
-55 -24 -60 25 -33 41 23 161 52 172 42 2 -3 -9 -70 -26 -148 -16 -79 -30
-145 -30 -147 0 -1 -14 -3 -31 -3 -42 0 -63 -13 -88 -56 -25 -43 -23 -48 13
-34 39 15 86 13 86 -4 0 -7 -11 -69 -25 -137 -41 -201 -36 -252 31 -296 38
-25 177 -29 303 -9 118 19 154 34 181 79 31 51 26 56 -37 33 -47 -16 -83 -20
-191 -21 l-134 0 -25 29 c-28 33 -28 39 9 227 l20 106 130 5 c143 5 165 14
202 78 19 32 19 33 2 27 -59 -23 -316 -37 -316 -18 0 8 39 196 55 269 5 22 8
22 158 22 184 0 215 7 258 61 17 22 29 42 27 44 -3 3 -7 3 -10 0z"/>
        <path d="M2070 1030 c-284 -35 -505 -321 -487 -628 9 -151 76 -247 205 -294
60 -22 188 -23 266 -3 141 37 276 139 276 209 0 19 -4 37 -8 40 -5 3 -26 -13
-48 -35 -54 -55 -123 -98 -195 -120 -198 -62 -343 36 -356 241 -13 202 103
437 252 506 108 51 227 23 292 -68 39 -54 49 -53 77 7 45 94 -94 167 -274 145z"/>
        <path d="M5068 1035 c-16 -17 -149 -28 -398 -34 -319 -8 -323 -8 -361 -82 -28
-55 -24 -60 25 -33 41 23 161 52 172 42 2 -3 -9 -70 -26 -148 -16 -79 -30
-145 -30 -147 0 -1 -14 -3 -31 -3 -42 0 -63 -13 -88 -56 -25 -43 -23 -48 13
-34 39 15 86 13 86 -4 0 -7 -11 -69 -25 -137 -41 -201 -36 -252 31 -296 38
-25 177 -29 303 -9 118 19 154 34 181 79 31 51 26 56 -37 33 -47 -16 -83 -20
-191 -21 l-134 0 -25 29 c-28 33 -28 39 9 227 l20 106 130 5 c143 5 165 14
202 78 19 32 19 33 2 27 -59 -23 -316 -37 -316 -18 0 8 39 196 55 269 5 22 8
22 158 22 184 0 215 7 258 61 17 22 29 42 27 44 -3 3 -7 3 -10 0z"/>
        <path d="M6470 1020 c-154 -19 -260 -122 -261 -254 -1 -85 26 -129 162 -263
184 -181 207 -250 115 -338 -124 -120 -323 -69 -356 92 l-12 57 -39 -42 c-29
-31 -39 -50 -39 -74 0 -61 62 -131 139 -157 55 -18 171 -13 247 10 57 18 77
30 129 82 66 68 85 110 85 194 0 83 -37 140 -187 288 l-133 131 0 57 c0 49 4
61 32 93 40 45 82 64 143 64 61 0 103 -19 142 -64 l32 -36 16 29 c41 81 3 119
-135 135 -14 1 -50 0 -80 -4z"/>
    </g>
</svg>