<svg version="1.0" xmlns="http://www.w3.org/2000/svg"
 width="113" height="671" viewBox="0 0 113.000000 671.000000"
 preserveAspectRatio="xMidYMid meet">

<g transform="translate(0.000000,671.000000) scale(0.100000,-0.100000)"
fill="currentColor" stroke="none" id="techlens-profile">
<path d="M894 6683 c10 -42 20 -303 11 -303 -4 0 -180 34 -391 76 -211 41
-394 74 -407 72 -19 -3 -22 -9 -20 -43 1 -22 6 -52 12 -67 9 -24 16 -28 51
-28 31 0 635 -112 736 -136 19 -5 22 -15 28 -119 7 -120 25 -197 54 -230 41
-48 91 -66 136 -49 23 9 20 17 -13 37 -16 9 -41 40 -55 69 -26 52 -26 52 -27
322 0 281 -6 358 -30 381 -8 8 -31 21 -53 30 l-39 16 7 -28z"/>
<path d="M870 5911 c0 -6 4 -13 10 -16 13 -8 50 -131 50 -167 0 -26 -3 -29
-22 -25 -13 3 -74 16 -136 28 -116 23 -142 35 -142 70 0 31 -17 55 -54 78 -44
28 -46 27 -35 -11 13 -48 11 -88 -5 -88 -7 0 -69 11 -137 25 -203 42 -258 35
-295 -38 -25 -46 -28 -164 -10 -285 18 -122 36 -164 81 -192 50 -31 55 -26 33
43 -25 78 -36 248 -18 301 6 20 22 44 36 52 26 17 38 16 215 -18 l106 -20 6
-130 c7 -143 15 -165 70 -198 17 -11 33 -18 35 -16 2 2 -2 23 -8 46 -11 41
-17 266 -8 276 4 3 136 -22 265 -51 20 -5 21 -10 25 -177 3 -158 5 -176 25
-203 11 -16 34 -38 50 -47 l29 -17 -13 62 c-8 38 -15 163 -18 317 -3 140 -8
271 -11 290 -8 49 -28 77 -74 100 -44 23 -50 24 -50 11z"/>
<path d="M317 5120 c-92 -24 -170 -89 -208 -175 -65 -146 -13 -388 110 -516
39 -40 54 -49 82 -49 20 0 39 3 42 6 4 4 -17 32 -45 63 -28 31 -67 89 -87 130
-31 66 -35 84 -35 155 0 121 36 181 139 228 43 20 66 23 155 22 121 -1 223
-29 313 -88 205 -132 243 -339 84 -456 l-48 -35 28 -22 c61 -49 109 -34 150
45 47 92 38 245 -22 367 -94 194 -298 322 -525 331 -52 2 -112 -1 -133 -6z"/>
<path d="M510 4223 c21 -56 36 -153 23 -153 -4 0 -118 22 -253 49 -135 27
-251 46 -258 44 -30 -12 1 -140 34 -136 11 1 122 -18 247 -42 126 -25 230 -45
233 -45 2 0 4 -73 4 -161 l0 -162 -37 6 c-208 32 -348 7 -400 -72 -28 -41 -32
-135 -8 -181 17 -33 52 -60 77 -60 16 0 16 3 2 35 -49 118 27 173 221 161 137
-8 145 -11 145 -51 0 -40 38 -90 76 -99 34 -9 37 -5 20 30 -8 16 -18 41 -21
57 -9 35 2 35 126 3 131 -34 256 -89 327 -143 18 -14 36 -23 38 -20 12 12 -17
122 -39 145 -35 39 -175 100 -322 139 l-135 37 0 158 c0 124 3 158 13 158 7 0
100 -17 205 -39 l192 -38 -6 141 c-6 116 -4 148 9 179 17 41 12 44 -36 23 -59
-25 -72 -49 -70 -128 2 -68 2 -70 -20 -64 -12 3 -82 18 -154 32 l-133 27 0 48
c0 67 -25 124 -65 149 -49 30 -55 25 -35 -27z"/>
<path d="M131 3074 c-45 -38 -54 -86 -48 -244 10 -209 34 -288 100 -321 21
-11 40 -19 42 -17 2 2 -5 29 -15 59 -44 134 -51 309 -16 377 15 30 20 32 66
32 27 0 212 -32 411 -71 198 -38 373 -69 388 -67 31 4 38 35 21 98 -10 38 -14
41 -36 36 -14 -4 -182 25 -404 69 -209 41 -402 75 -429 75 -39 0 -56 -6 -80
-26z"/>
<path d="M887 2369 c17 -33 28 -72 31 -111 4 -55 3 -60 -14 -55 -11 3 -68 15
-129 27 -150 29 -145 27 -145 59 0 34 -31 76 -72 97 -31 16 -31 16 -24 -8 17
-62 19 -98 5 -98 -8 0 -72 11 -143 25 -217 43 -268 35 -301 -48 -33 -80 -10
-367 34 -427 18 -25 78 -66 86 -59 2 3 -5 36 -17 74 -24 85 -30 254 -10 302
21 48 52 56 152 38 47 -8 113 -20 148 -26 l62 -11 0 -112 c0 -142 10 -176 58
-210 21 -14 40 -26 43 -26 3 0 0 28 -7 63 -14 66 -19 267 -6 267 4 -1 68 -13
142 -28 l135 -28 6 -164 c4 -91 12 -177 17 -191 10 -24 82 -93 89 -85 2 2 -1
23 -7 47 -7 24 -15 178 -19 342 -8 330 -7 324 -81 375 -54 36 -62 28 -33 -29z"/>
<path d="M98 1588 c-22 -18 -27 -50 -16 -102 11 -51 13 -53 40 -29 37 34 125
29 373 -21 127 -26 238 -50 248 -54 14 -6 -18 -23 -130 -71 -212 -91 -416
-197 -469 -244 -100 -88 -91 -146 29 -202 164 -78 678 -169 790 -141 57 14 72
63 40 131 -17 37 -27 43 -39 24 -3 -6 -27 -20 -52 -31 -104 -46 -506 -7 -642
62 -22 11 -40 27 -40 34 0 45 143 122 550 296 157 68 293 130 303 138 21 19
22 64 1 119 l-17 43 -37 -34 c-20 -18 -58 -41 -84 -51 l-47 -18 -267 61 c-450
104 -504 113 -534 90z"/>
<path d="M130 651 c-77 -40 -119 -165 -99 -291 27 -172 125 -277 267 -288 102
-7 139 15 308 180 l142 138 49 0 c64 0 110 -30 141 -90 39 -79 20 -176 -46
-232 -34 -29 -30 -41 20 -53 68 -17 107 42 108 161 0 188 -108 324 -258 324
-86 0 -131 -28 -268 -166 -154 -156 -212 -187 -282 -150 -129 68 -152 267 -42
360 18 14 49 29 69 32 59 10 69 19 46 44 -46 51 -99 61 -155 31z"/>
</g>
</svg>
